<?xml version="1.0" encoding="UTF-8" standalone="no"?>
<!DOCTYPE svg PUBLIC "-//W3C//DTD SVG 1.1//EN"
 "http://www.w3.org/Graphics/SVG/1.1/DTD/svg11.dtd">
<!-- Generated by graphviz version 2.26.3 (20100126.1600)
 -->
<!-- Title: AdebarFiles Pages: 1 -->
<svg width="332pt" height="468pt"
 viewBox="0.00 0.00 332.00 468.00" xmlns="http://www.w3.org/2000/svg" xmlns:xlink="http://www.w3.org/1999/xlink">
<g id="graph1" class="graph" transform="scale(1 1) rotate(0) translate(4 464)">
<title>AdebarFiles</title>
<polygon fill="white" stroke="white" points="-4,5 -4,-464 329,-464 329,5 -4,5"/>
<g id="graph2" class="cluster"><title>cluster_conf</title>
<polygon fill="#ffeeaa" stroke="#ffeeaa" points="93,-302 93,-452 316,-452 316,-302 93,-302"/>
<text text-anchor="middle" x="204.5" y="-435.4" font-family="Arial" font-size="14.00">files pulled from the device</text>
</g>
<g id="graph3" class="cluster"><title>cluster_doc</title>
<polygon fill="#99eeff" stroke="#99eeff" points="92,-210 92,-294 300,-294 300,-210 92,-210"/>
<text text-anchor="middle" x="196" y="-277.4" font-family="Arial" font-size="14.00">generated documentation</text>
</g>
<g id="graph4" class="cluster"><title>cluster_scripts</title>
<polygon fill="#ff3333" stroke="#ff3333" points="93,-8 93,-202 311,-202 311,-8 93,-8"/>
<text text-anchor="middle" x="202" y="-185.4" font-family="Arial" font-size="14.00">generated scripts</text>
</g>
<!-- conf -->
<g id="node2" class="node"><title>conf</title>
<polygon fill="white" stroke="blue" points="155,-364 152,-368 131,-368 128,-364 101,-364 101,-328 155,-328 155,-364"/>
<text text-anchor="middle" x="128" y="-341.4" font-family="Arial" font-size="14.00">./conf</text>
</g>
<!-- conffiles -->
<g id="node3" class="node"><title>conffiles</title>
<polygon fill="white" stroke="white" points="204,-310 296,-310 308,-322 308,-408 296,-420 204,-420 192,-408 192,-322 204,-310"/>
<path fill="white" stroke="white" d="M296,-310C302,-310 308,-316 308,-322"/>
<path fill="white" stroke="white" d="M308,-408C308,-414 302,-420 296,-420"/>
<path fill="white" stroke="white" d="M204,-420C198,-420 192,-414 192,-408"/>
<path fill="white" stroke="white" d="M192,-322C192,-316 198,-310 204,-310"/>
<polyline fill="none" stroke="blue" points="204,-310 296,-310 "/>
<path fill="none" stroke="blue" d="M296,-310C302,-310 308,-316 308,-322"/>
<polyline fill="none" stroke="blue" points="308,-322 308,-408 "/>
<path fill="none" stroke="blue" d="M308,-408C308,-414 302,-420 296,-420"/>
<polyline fill="none" stroke="blue" points="296,-420 204,-420 "/>
<path fill="none" stroke="blue" d="M204,-420C198,-420 192,-414 192,-408"/>
<polyline fill="none" stroke="blue" points="192,-408 192,-322 "/>
<path fill="none" stroke="blue" d="M192,-322C192,-316 198,-310 204,-310"/>
<text text-anchor="middle" x="250" y="-406.1" font-family="Arial" font-size="11.00">build.prop</text>
<polyline fill="none" stroke="blue" points="192,-398 308,-398 "/>
<text text-anchor="middle" x="250" y="-384.1" font-family="Arial" font-size="11.00">gps.conf</text>
<polyline fill="none" stroke="blue" points="192,-376 308,-376 "/>
<text text-anchor="middle" x="250" y="-362.1" font-family="Arial" font-size="11.00">hosts</text>
<polyline fill="none" stroke="blue" points="192,-354 308,-354 "/>
<text text-anchor="middle" x="250" y="-340.1" font-family="Arial" font-size="11.00">packages.xml</text>
<polyline fill="none" stroke="blue" points="192,-332 308,-332 "/>
<text text-anchor="middle" x="250" y="-318.1" font-family="Arial" font-size="11.00">wpa_supplicant.conf</text>
</g>
<!-- conf&#45;&gt;conffiles -->
<g id="edge3" class="edge"><title>conf&#45;&gt;conffiles</title>
<path fill="none" stroke="black" d="M155.076,-350.217C163.015,-351.453 172.078,-352.865 181.382,-354.314"/>
<polygon fill="black" stroke="black" points="181.11,-357.813 191.529,-355.894 182.187,-350.897 181.11,-357.813"/>
</g>
<!-- docs -->
<g id="node6" class="node"><title>docs</title>
<polygon fill="white" stroke="blue" points="156,-258 153,-262 132,-262 129,-258 100,-258 100,-222 156,-222 156,-258"/>
<text text-anchor="middle" x="128" y="-235.4" font-family="Arial" font-size="14.00">./docs</text>
</g>
<!-- docfiles -->
<g id="node7" class="node"><title>docfiles</title>
<polygon fill="white" stroke="white" points="220,-218 280,-218 292,-230 292,-250 280,-262 220,-262 208,-250 208,-230 220,-218"/>
<path fill="white" stroke="white" d="M280,-218C286,-218 292,-224 292,-230"/>
<path fill="white" stroke="white" d="M292,-250C292,-256 286,-262 280,-262"/>
<path fill="white" stroke="white" d="M220,-262C214,-262 208,-256 208,-250"/>
<path fill="white" stroke="white" d="M208,-230C208,-224 214,-218 220,-218"/>
<polyline fill="none" stroke="blue" points="220,-218 280,-218 "/>
<path fill="none" stroke="blue" d="M280,-218C286,-218 292,-224 292,-230"/>
<polyline fill="none" stroke="blue" points="292,-230 292,-250 "/>
<path fill="none" stroke="blue" d="M292,-250C292,-256 286,-262 280,-262"/>
<polyline fill="none" stroke="blue" points="280,-262 220,-262 "/>
<path fill="none" stroke="blue" d="M220,-262C214,-262 208,-256 208,-250"/>
<polyline fill="none" stroke="blue" points="208,-250 208,-230 "/>
<path fill="none" stroke="blue" d="M208,-230C208,-224 214,-218 220,-218"/>
<text text-anchor="middle" x="250" y="-248.1" font-family="Arial" font-size="11.00">deviceInfo.md</text>
<polyline fill="none" stroke="blue" points="208,-240 292,-240 "/>
<text text-anchor="middle" x="250" y="-226.1" font-family="Arial" font-size="11.00">userApps.md</text>
</g>
<!-- docs&#45;&gt;docfiles -->
<g id="edge6" class="edge"><title>docs&#45;&gt;docfiles</title>
<path fill="none" stroke="black" d="M156.296,-240C168.644,-240 183.53,-240 197.766,-240"/>
<polygon fill="black" stroke="black" points="197.972,-243.5 207.972,-240 197.972,-236.5 197.972,-243.5"/>
</g>
<!-- scripts -->
<g id="node10" class="node"><title>scripts</title>
<polygon fill="white" stroke="blue" points="155,-141 152,-145 131,-145 128,-141 101,-141 101,-105 155,-105 155,-141"/>
<text text-anchor="middle" x="128" y="-118.4" font-family="Arial" font-size="14.00">./</text>
</g>
<!-- scriptfiles -->
<g id="node11" class="node"><title>scriptfiles</title>
<polygon fill="white" stroke="white" points="209.5,-16 290.5,-16 302.5,-28 302.5,-158 290.5,-170 209.5,-170 197.5,-158 197.5,-28 209.5,-16"/>
<path fill="white" stroke="white" d="M290.5,-16C296.5,-16 302.5,-22 302.5,-28"/>
<path fill="white" stroke="white" d="M302.5,-158C302.5,-164 296.5,-170 290.5,-170"/>
<path fill="white" stroke="white" d="M209.5,-170C203.5,-170 197.5,-164 197.5,-158"/>
<path fill="white" stroke="white" d="M197.5,-28C197.5,-22 203.5,-16 209.5,-16"/>
<polyline fill="none" stroke="blue" points="209.5,-16 290.5,-16 "/>
<path fill="none" stroke="blue" d="M290.5,-16C296.5,-16 302.5,-22 302.5,-28"/>
<polyline fill="none" stroke="blue" points="302.5,-28 302.5,-158 "/>
<path fill="none" stroke="blue" d="M302.5,-158C302.5,-164 296.5,-170 290.5,-170"/>
<polyline fill="none" stroke="blue" points="290.5,-170 209.5,-170 "/>
<path fill="none" stroke="blue" d="M209.5,-170C203.5,-170 197.5,-164 197.5,-158"/>
<polyline fill="none" stroke="blue" points="197.5,-158 197.5,-28 "/>
<path fill="none" stroke="blue" d="M197.5,-28C197.5,-22 203.5,-16 209.5,-16"/>
<text text-anchor="middle" x="250" y="-156.1" font-family="Arial" font-size="11.00">deadReceivers.sh</text>
<polyline fill="none" stroke="blue" points="197.5,-148 302.5,-148 "/>
<text text-anchor="middle" x="250" y="-134.1" font-family="Arial" font-size="11.00">defaultInstallLoc</text>
<polyline fill="none" stroke="blue" points="197.5,-126 302.5,-126 "/>
<text text-anchor="middle" x="250" y="-112.1" font-family="Arial" font-size="11.00">disable</text>
<polyline fill="none" stroke="blue" points="197.5,-104 302.5,-104 "/>
<text text-anchor="middle" x="250" y="-90.1" font-family="Arial" font-size="11.00">sysbackup</text>
<polyline fill="none" stroke="blue" points="197.5,-82 302.5,-82 "/>
<text text-anchor="middle" x="250" y="-68.1" font-family="Arial" font-size="11.00">sysrestore</text>
<polyline fill="none" stroke="blue" points="197.5,-60 302.5,-60 "/>
<text text-anchor="middle" x="250" y="-46.1" font-family="Arial" font-size="11.00">userbackup</text>
<polyline fill="none" stroke="blue" points="197.5,-38 302.5,-38 "/>
<text text-anchor="middle" x="250" y="-24.1" font-family="Arial" font-size="11.00">userrestore</text>
</g>
<!-- scripts&#45;&gt;scriptfiles -->
<g id="edge9" class="edge"><title>scripts&#45;&gt;scriptfiles</title>
<path fill="none" stroke="black" d="M155.076,-116.342C164.74,-113.966 176.071,-111.179 187.472,-108.376"/>
<polygon fill="black" stroke="black" points="188.595,-111.704 197.47,-105.917 186.923,-104.906 188.595,-111.704"/>
</g>
<!-- Adebar -->
<g id="node13" class="node"><title>Adebar</title>
<polygon fill="none" stroke="black" points="63,-258 1,-258 1,-254 -3,-254 -3,-250 1,-250 1,-230 -3,-230 -3,-226 1,-226 1,-222 63,-222 63,-258"/>
<polyline fill="none" stroke="black" points="1,-254 5,-254 5,-250 1,-250 "/>
<polyline fill="none" stroke="black" points="1,-230 5,-230 5,-226 1,-226 "/>
<text text-anchor="middle" x="32" y="-235.4" font-family="Arial" font-size="14.00">Adebar</text>
</g>
<!-- Adebar&#45;&gt;conf -->
<g id="edge11" class="edge"><title>Adebar&#45;&gt;conf</title>
<path fill="none" stroke="black" d="M48.7219,-258.464C64.2084,-275.563 87.3887,-301.158 104.689,-320.261"/>
<polygon fill="black" stroke="black" points="102.163,-322.685 111.47,-327.748 107.351,-317.986 102.163,-322.685"/>
</g>
<!-- Adebar&#45;&gt;docs -->
<g id="edge13" class="edge"><title>Adebar&#45;&gt;docs</title>
<path fill="none" stroke="black" d="M63.7,-240C72.0091,-240 81.0577,-240 89.6726,-240"/>
<polygon fill="black" stroke="black" points="89.8869,-243.5 99.8869,-240 89.8869,-236.5 89.8869,-243.5"/>
</g>
<!-- Adebar&#45;&gt;scripts -->
<g id="edge15" class="edge"><title>Adebar&#45;&gt;scripts</title>
<path fill="none" stroke="black" d="M46.7896,-221.975C62.7395,-202.536 88.2854,-171.402 106.464,-149.247"/>
<polygon fill="black" stroke="black" points="109.398,-151.189 113.035,-141.238 103.986,-146.749 109.398,-151.189"/>
</g>
</g>
</svg>
