<?xml version="1.0" encoding="UTF-8" standalone="no"?>
<!DOCTYPE svg PUBLIC "-//W3C//DTD SVG 1.1//EN"
 "http://www.w3.org/Graphics/SVG/1.1/DTD/svg11.dtd">
<!-- Generated by graphviz version 2.26.3 (20100126.1600)
 -->
<!-- Title: AdebarFiles Pages: 1 -->
<svg width="332pt" height="490pt"
 viewBox="0.00 0.00 332.00 490.00" xmlns="http://www.w3.org/2000/svg" xmlns:xlink="http://www.w3.org/1999/xlink">
<g id="graph1" class="graph" transform="scale(1 1) rotate(0) translate(4 486)">
<title>AdebarFiles</title>
<polygon fill="white" stroke="white" points="-4,5 -4,-486 329,-486 329,5 -4,5"/>
<g id="graph2" class="cluster"><title>cluster_conf</title>
<polygon fill="#ffeeaa" stroke="#ffeeaa" points="93,-324 93,-474 316,-474 316,-324 93,-324"/>
<text text-anchor="middle" x="204.5" y="-457.4" font-family="Arial" font-size="14.00">files pulled from the device</text>
</g>
<g id="graph3" class="cluster"><title>cluster_doc</title>
<polygon fill="#99eeff" stroke="#99eeff" points="92,-232 92,-316 300,-316 300,-232 92,-232"/>
<text text-anchor="middle" x="196" y="-299.4" font-family="Arial" font-size="14.00">generated documentation</text>
</g>
<g id="graph4" class="cluster"><title>cluster_scripts</title>
<polygon fill="#ff3333" stroke="#ff3333" points="93,-8 93,-224 311,-224 311,-8 93,-8"/>
<text text-anchor="middle" x="202" y="-207.4" font-family="Arial" font-size="14.00">generated scripts</text>
</g>
<!-- conf -->
<g id="node2" class="node"><title>conf</title>
<polygon fill="white" stroke="blue" points="155,-386 152,-390 131,-390 128,-386 101,-386 101,-350 155,-350 155,-386"/>
<text text-anchor="middle" x="128" y="-363.4" font-family="Arial" font-size="14.00">./conf</text>
</g>
<!-- conffiles -->
<g id="node3" class="node"><title>conffiles</title>
<polygon fill="white" stroke="white" points="204,-332 296,-332 308,-344 308,-430 296,-442 204,-442 192,-430 192,-344 204,-332"/>
<path fill="white" stroke="white" d="M296,-332C302,-332 308,-338 308,-344"/>
<path fill="white" stroke="white" d="M308,-430C308,-436 302,-442 296,-442"/>
<path fill="white" stroke="white" d="M204,-442C198,-442 192,-436 192,-430"/>
<path fill="white" stroke="white" d="M192,-344C192,-338 198,-332 204,-332"/>
<polyline fill="none" stroke="blue" points="204,-332 296,-332 "/>
<path fill="none" stroke="blue" d="M296,-332C302,-332 308,-338 308,-344"/>
<polyline fill="none" stroke="blue" points="308,-344 308,-430 "/>
<path fill="none" stroke="blue" d="M308,-430C308,-436 302,-442 296,-442"/>
<polyline fill="none" stroke="blue" points="296,-442 204,-442 "/>
<path fill="none" stroke="blue" d="M204,-442C198,-442 192,-436 192,-430"/>
<polyline fill="none" stroke="blue" points="192,-430 192,-344 "/>
<path fill="none" stroke="blue" d="M192,-344C192,-338 198,-332 204,-332"/>
<text text-anchor="middle" x="250" y="-428.1" font-family="Arial" font-size="11.00">build.prop</text>
<polyline fill="none" stroke="blue" points="192,-420 308,-420 "/>
<text text-anchor="middle" x="250" y="-406.1" font-family="Arial" font-size="11.00">gps.conf</text>
<polyline fill="none" stroke="blue" points="192,-398 308,-398 "/>
<text text-anchor="middle" x="250" y="-384.1" font-family="Arial" font-size="11.00">hosts</text>
<polyline fill="none" stroke="blue" points="192,-376 308,-376 "/>
<text text-anchor="middle" x="250" y="-362.1" font-family="Arial" font-size="11.00">packages.xml</text>
<polyline fill="none" stroke="blue" points="192,-354 308,-354 "/>
<text text-anchor="middle" x="250" y="-340.1" font-family="Arial" font-size="11.00">wpa_supplicant.conf</text>
</g>
<!-- conf&#45;&gt;conffiles -->
<g id="edge3" class="edge"><title>conf&#45;&gt;conffiles</title>
<path fill="none" stroke="black" d="M155.076,-372.217C163.015,-373.453 172.078,-374.865 181.382,-376.314"/>
<polygon fill="black" stroke="black" points="181.11,-379.813 191.529,-377.894 182.187,-372.897 181.11,-379.813"/>
</g>
<!-- docs -->
<g id="node6" class="node"><title>docs</title>
<polygon fill="white" stroke="blue" points="156,-280 153,-284 132,-284 129,-280 100,-280 100,-244 156,-244 156,-280"/>
<text text-anchor="middle" x="128" y="-257.4" font-family="Arial" font-size="14.00">./docs</text>
</g>
<!-- docfiles -->
<g id="node7" class="node"><title>docfiles</title>
<polygon fill="white" stroke="white" points="220,-240 280,-240 292,-252 292,-272 280,-284 220,-284 208,-272 208,-252 220,-240"/>
<path fill="white" stroke="white" d="M280,-240C286,-240 292,-246 292,-252"/>
<path fill="white" stroke="white" d="M292,-272C292,-278 286,-284 280,-284"/>
<path fill="white" stroke="white" d="M220,-284C214,-284 208,-278 208,-272"/>
<path fill="white" stroke="white" d="M208,-252C208,-246 214,-240 220,-240"/>
<polyline fill="none" stroke="blue" points="220,-240 280,-240 "/>
<path fill="none" stroke="blue" d="M280,-240C286,-240 292,-246 292,-252"/>
<polyline fill="none" stroke="blue" points="292,-252 292,-272 "/>
<path fill="none" stroke="blue" d="M292,-272C292,-278 286,-284 280,-284"/>
<polyline fill="none" stroke="blue" points="280,-284 220,-284 "/>
<path fill="none" stroke="blue" d="M220,-284C214,-284 208,-278 208,-272"/>
<polyline fill="none" stroke="blue" points="208,-272 208,-252 "/>
<path fill="none" stroke="blue" d="M208,-252C208,-246 214,-240 220,-240"/>
<text text-anchor="middle" x="250" y="-270.1" font-family="Arial" font-size="11.00">deviceInfo.md</text>
<polyline fill="none" stroke="blue" points="208,-262 292,-262 "/>
<text text-anchor="middle" x="250" y="-248.1" font-family="Arial" font-size="11.00">userApps.md</text>
</g>
<!-- docs&#45;&gt;docfiles -->
<g id="edge6" class="edge"><title>docs&#45;&gt;docfiles</title>
<path fill="none" stroke="black" d="M156.296,-262C168.644,-262 183.53,-262 197.766,-262"/>
<polygon fill="black" stroke="black" points="197.972,-265.5 207.972,-262 197.972,-258.5 197.972,-265.5"/>
</g>
<!-- scripts -->
<g id="node10" class="node"><title>scripts</title>
<polygon fill="white" stroke="blue" points="155,-157 152,-161 131,-161 128,-157 101,-157 101,-121 155,-121 155,-157"/>
<text text-anchor="middle" x="128" y="-134.4" font-family="Arial" font-size="14.00">./</text>
</g>
<!-- scriptfiles -->
<g id="node11" class="node"><title>scriptfiles</title>
<polygon fill="white" stroke="white" points="209.5,-16 290.5,-16 302.5,-28 302.5,-180 290.5,-192 209.5,-192 197.5,-180 197.5,-28 209.5,-16"/>
<path fill="white" stroke="white" d="M290.5,-16C296.5,-16 302.5,-22 302.5,-28"/>
<path fill="white" stroke="white" d="M302.5,-180C302.5,-186 296.5,-192 290.5,-192"/>
<path fill="white" stroke="white" d="M209.5,-192C203.5,-192 197.5,-186 197.5,-180"/>
<path fill="white" stroke="white" d="M197.5,-28C197.5,-22 203.5,-16 209.5,-16"/>
<polyline fill="none" stroke="blue" points="209.5,-16 290.5,-16 "/>
<path fill="none" stroke="blue" d="M290.5,-16C296.5,-16 302.5,-22 302.5,-28"/>
<polyline fill="none" stroke="blue" points="302.5,-28 302.5,-180 "/>
<path fill="none" stroke="blue" d="M302.5,-180C302.5,-186 296.5,-192 290.5,-192"/>
<polyline fill="none" stroke="blue" points="290.5,-192 209.5,-192 "/>
<path fill="none" stroke="blue" d="M209.5,-192C203.5,-192 197.5,-186 197.5,-180"/>
<polyline fill="none" stroke="blue" points="197.5,-180 197.5,-28 "/>
<path fill="none" stroke="blue" d="M197.5,-28C197.5,-22 203.5,-16 209.5,-16"/>
<text text-anchor="middle" x="250" y="-178.1" font-family="Arial" font-size="11.00">deadReceivers.sh</text>
<polyline fill="none" stroke="blue" points="197.5,-170 302.5,-170 "/>
<text text-anchor="middle" x="250" y="-156.1" font-family="Arial" font-size="11.00">defaultInstallLoc</text>
<polyline fill="none" stroke="blue" points="197.5,-148 302.5,-148 "/>
<text text-anchor="middle" x="250" y="-134.1" font-family="Arial" font-size="11.00">disable</text>
<polyline fill="none" stroke="blue" points="197.5,-126 302.5,-126 "/>
<text text-anchor="middle" x="250" y="-112.1" font-family="Arial" font-size="11.00">sysbackup</text>
<polyline fill="none" stroke="blue" points="197.5,-104 302.5,-104 "/>
<text text-anchor="middle" x="250" y="-90.1" font-family="Arial" font-size="11.00">sysrestore</text>
<polyline fill="none" stroke="blue" points="197.5,-82 302.5,-82 "/>
<text text-anchor="middle" x="250" y="-68.1" font-family="Arial" font-size="11.00">tibu</text>
<polyline fill="none" stroke="blue" points="197.5,-60 302.5,-60 "/>
<text text-anchor="middle" x="250" y="-46.1" font-family="Arial" font-size="11.00">userbackup</text>
<polyline fill="none" stroke="blue" points="197.5,-38 302.5,-38 "/>
<text text-anchor="middle" x="250" y="-24.1" font-family="Arial" font-size="11.00">userrestore</text>
</g>
<!-- scripts&#45;&gt;scriptfiles -->
<g id="edge9" class="edge"><title>scripts&#45;&gt;scriptfiles</title>
<path fill="none" stroke="black" d="M155.076,-131.232C164.838,-128.432 176.3,-125.144 187.818,-121.839"/>
<polygon fill="black" stroke="black" points="188.823,-125.192 197.47,-119.07 186.892,-118.463 188.823,-125.192"/>
</g>
<!-- Adebar -->
<g id="node13" class="node"><title>Adebar</title>
<polygon fill="none" stroke="black" points="63,-280 1,-280 1,-276 -3,-276 -3,-272 1,-272 1,-252 -3,-252 -3,-248 1,-248 1,-244 63,-244 63,-280"/>
<polyline fill="none" stroke="black" points="1,-276 5,-276 5,-272 1,-272 "/>
<polyline fill="none" stroke="black" points="1,-252 5,-252 5,-248 1,-248 "/>
<text text-anchor="middle" x="32" y="-257.4" font-family="Arial" font-size="14.00">Adebar</text>
</g>
<!-- Adebar&#45;&gt;conf -->
<g id="edge11" class="edge"><title>Adebar&#45;&gt;conf</title>
<path fill="none" stroke="black" d="M48.7219,-280.464C64.2084,-297.563 87.3887,-323.158 104.689,-342.261"/>
<polygon fill="black" stroke="black" points="102.163,-344.685 111.47,-349.748 107.351,-339.986 102.163,-344.685"/>
</g>
<!-- Adebar&#45;&gt;docs -->
<g id="edge13" class="edge"><title>Adebar&#45;&gt;docs</title>
<path fill="none" stroke="black" d="M63.7,-262C72.0091,-262 81.0577,-262 89.6726,-262"/>
<polygon fill="black" stroke="black" points="89.8869,-265.5 99.8869,-262 89.8869,-258.5 89.8869,-265.5"/>
</g>
<!-- Adebar&#45;&gt;scripts -->
<g id="edge15" class="edge"><title>Adebar&#45;&gt;scripts</title>
<path fill="none" stroke="black" d="M46.1651,-243.851C62.4012,-223.048 89.1457,-188.782 107.618,-165.114"/>
<polygon fill="black" stroke="black" points="110.383,-167.26 113.777,-157.224 104.865,-162.953 110.383,-167.26"/>
</g>
</g>
</svg>
